<svg width="270" height="270" viewBox="0 0 270 270" fill="none" xmlns="http://www.w3.org/2000/svg">
<path d="M214.344 128.033C216.821 127.75 219.071 129.528 219.221 132.016C220.242 148.896 216.167 165.734 207.471 180.318C198.004 196.198 183.582 208.529 166.424 215.414C149.266 222.3 130.321 223.359 112.502 218.43C94.6831 213.5 78.9767 202.854 67.7974 188.129C56.6182 173.403 50.5849 155.414 50.6252 136.925C50.6655 118.437 56.7772 100.474 68.0206 85.7976C79.2639 71.1211 95.0166 60.5438 112.857 55.6918C129.242 51.2355 146.555 51.8354 162.54 57.3554C164.896 58.169 166.004 60.814 165.066 63.1232C164.127 65.4325 161.498 66.5299 159.137 65.7314C144.99 60.9471 129.702 60.4648 115.226 64.4019C99.2941 68.7349 85.2266 78.1806 75.1861 91.287C65.1455 104.393 59.6877 120.435 59.6517 136.945C59.6157 153.455 65.0035 169.52 74.9868 182.67C84.9701 195.821 98.9963 205.328 114.909 209.73C130.821 214.132 147.739 213.186 163.062 207.037C178.385 200.888 191.263 189.877 199.718 175.696C207.401 162.81 211.045 147.955 210.239 133.043C210.104 130.554 211.868 128.316 214.344 128.033Z" fill="#FFFDFD"/>
<path d="M187.625 63.2813C188.73 63.2812 189.625 64.1767 189.625 65.2812V86.7031H211.047C212.151 86.7031 213.047 87.5986 213.047 88.7031C213.047 89.8077 212.151 90.7031 211.047 90.7031H189.625V107.688C189.625 108.792 188.73 109.688 187.625 109.688C186.52 109.688 185.625 108.792 185.625 107.688V90.7031H168.641C167.536 90.7031 166.641 89.8077 166.641 88.7031C166.641 87.5986 167.536 86.7031 168.641 86.7031H185.625V65.2812C185.625 64.1767 186.52 63.2813 187.625 63.2813Z" fill="#FFFDFD"/>
<path d="M134.585 181.406C133.237 181.406 132.134 180.94 131.277 180.009C130.419 179.139 129.99 178.053 129.99 176.748V170.414C126.253 170.165 122.914 169.575 119.973 168.644C117.094 167.65 114.612 166.563 112.529 165.383C111.12 164.576 110.232 163.489 109.864 162.122C109.558 160.756 109.65 159.452 110.14 158.21C110.63 156.968 111.457 156.098 112.621 155.601C113.785 155.104 115.164 155.322 116.757 156.253C118.472 157.247 120.708 158.21 123.465 159.141C126.284 160.011 129.653 160.446 133.574 160.446C138.169 160.446 141.477 159.638 143.499 158.023C145.521 156.347 146.532 154.266 146.532 151.782C146.532 149.732 145.827 148.056 144.418 146.751C143.009 145.447 140.497 144.391 136.883 143.584L127.141 141.441C116.052 139.019 110.508 133.119 110.508 123.741C110.508 118.524 112.254 114.146 115.746 110.606C119.299 107.004 124.047 104.83 129.99 104.085V97.4704C129.99 96.1662 130.419 95.0794 131.277 94.2099C132.134 93.2783 133.237 92.8125 134.585 92.8125C135.872 92.8125 136.944 93.2783 137.802 94.2099C138.721 95.0794 139.18 96.1662 139.18 97.4704V103.992C141.631 104.24 144.204 104.83 146.9 105.762C149.657 106.693 152.046 107.966 154.068 109.581C155.232 110.513 155.906 111.599 156.089 112.842C156.273 114.022 156.059 115.139 155.446 116.195C154.895 117.189 154.006 117.872 152.781 118.245C151.617 118.555 150.239 118.245 148.646 117.313C146.869 116.257 144.878 115.419 142.672 114.798C140.467 114.115 137.832 113.773 134.769 113.773C130.848 113.773 127.754 114.674 125.487 116.475C123.281 118.214 122.179 120.512 122.179 123.368C122.179 125.48 122.853 127.188 124.2 128.492C125.548 129.734 127.846 130.728 131.093 131.473L141.11 133.709C146.991 135.013 151.311 137.094 154.068 139.951C156.825 142.745 158.203 146.441 158.203 151.037C158.203 156.253 156.426 160.539 152.873 163.892C149.381 167.184 144.816 169.265 139.18 170.134V176.748C139.18 178.053 138.751 179.139 137.893 180.009C137.036 180.94 135.933 181.406 134.585 181.406Z" fill="white"/>
</svg>
